<svg width="105" height="53" viewBox="0 0 105 53" fill="none" xmlns="http://www.w3.org/2000/svg">
<path d="M0 51.5657L96.2076 48.9337C96.7207 48.8977 97.2009 48.67 97.551 48.2967C97.9012 47.9234 98.0953 47.4323 98.094 46.9226V13.6324C98.0938 13.1266 97.9006 12.6397 97.5531 12.2691C97.2057 11.8985 96.7297 11.6717 96.2206 11.6342L45.8747 8.9441V8H102.578C103.221 8 103.837 8.2527 104.291 8.7026C104.745 9.1526 105 9.7628 105 10.3991V50.1753C104.998 50.4849 104.933 50.7909 104.809 51.0751C104.685 51.3594 104.505 51.6161 104.279 51.8301C104.053 52.0442 103.786 52.2112 103.494 52.3212C103.202 52.4313 102.891 52.4822 102.578 52.471H0V51.5657Z" fill="#282828"/>
<path d="M0 17.9263H4.58877V28.5769L12.2911 17.9263H17.7807L8.43995 30.006L17.7807 42.4737H12.2911L4.58877 31.7261V42.4737H0V17.9263Z" fill="#282828"/>
<path d="M26.1815 17.9263V35.1793L37.2325 17.9263H41.8212V42.4737H37.2325V25.2272L26.1815 42.4737H21.5928V17.9263H26.1815Z" fill="#282828"/>
<path d="M26.1815 18V35.253L37.2325 18H41.8212V42.5474H37.2325V25.3009L26.1815 42.5474H21.5928V18H26.1815Z" fill="#282828"/>
<path d="M45.6333 17.9263H50.2221V27.7815H59.2625V17.9263H63.8513V42.4737H59.2625V32.1917H50.2221V42.4737H45.6333V17.9263Z" fill="#282828"/>
<path d="M89.1973 30.2388C89.1973 28.5761 88.6996 26.9508 87.7672 25.5683C86.8348 24.1859 85.5095 23.1084 83.959 22.4721C82.4084 21.8358 80.7022 21.6693 79.0562 21.9937C77.4101 22.3181 75.8981 23.1187 74.7114 24.2944C73.5247 25.4701 72.7165 26.968 72.3891 28.5987C72.0616 30.2295 72.2297 31.9198 72.8719 33.4559C73.5142 34.992 74.6018 36.3049 75.9973 37.2286C77.3927 38.1524 79.0334 38.6454 80.7117 38.6454C81.8314 38.6647 82.9435 38.4604 83.9818 38.0447C85.0201 37.6291 85.9634 37.0106 86.7552 36.2261C87.5471 35.4416 88.1714 34.5072 88.591 33.4785C89.0105 32.4499 89.2167 31.3481 89.1973 30.2388ZM93.7665 30.3358C93.7859 32.8978 93.0367 35.4078 91.6141 37.5474C90.1915 39.6869 88.1594 41.3597 85.7757 42.3535C83.392 43.3473 80.7641 43.6173 78.2253 43.1293C75.6865 42.6412 73.3512 41.4172 71.5157 39.6123C69.6801 37.8075 68.427 35.5033 67.9153 32.9918C67.4036 30.4804 67.6563 27.875 68.6415 25.5061C69.6266 23.1372 71.2998 21.1115 73.4487 19.6861C75.5976 18.2606 78.1255 17.4996 80.7117 17.4995C82.4264 17.4683 84.1301 17.7782 85.7218 18.411C87.3135 19.0438 88.7609 19.9866 89.9782 21.1835C91.1955 22.3804 92.158 23.8072 92.8087 25.3793C93.4594 26.9513 93.7851 28.6368 93.7665 30.3358Z" fill="#282828"/>
<path d="M89.1973 30.2388C89.1973 28.5761 88.6996 26.9508 87.7672 25.5683C86.8348 24.1859 85.5095 23.1084 83.959 22.4721C82.4084 21.8358 80.7022 21.6693 79.0562 21.9937C77.4101 22.3181 75.8981 23.1187 74.7114 24.2944C73.5247 25.4701 72.7165 26.968 72.3891 28.5987C72.0616 30.2295 72.2297 31.9198 72.8719 33.4559C73.5142 34.992 74.6018 36.3049 75.9973 37.2286C77.3927 38.1524 79.0334 38.6454 80.7117 38.6454C81.8314 38.6647 82.9435 38.4604 83.9818 38.0447C85.0201 37.6291 85.9634 37.0106 86.7552 36.2261C87.5471 35.4416 88.1714 34.5072 88.591 33.4785C89.0105 32.4499 89.2167 31.3481 89.1973 30.2388ZM93.7665 30.3358C93.7859 32.8978 93.0367 35.4078 91.6141 37.5474C90.1915 39.6869 88.1594 41.3597 85.7757 42.3535C83.392 43.3473 80.7641 43.6173 78.2253 43.1293C75.6865 42.6412 73.3512 41.4172 71.5157 39.6123C69.6801 37.8075 68.427 35.5033 67.9153 32.9918C67.4036 30.4804 67.6563 27.875 68.6415 25.5061C69.6266 23.1372 71.2998 21.1115 73.4487 19.6861C75.5976 18.2606 78.1255 17.4996 80.7117 17.4995C82.4264 17.4683 84.1301 17.7782 85.7218 18.411C87.3135 19.0438 88.7609 19.9866 89.9782 21.1835C91.1955 22.3804 92.158 23.8072 92.8087 25.3793C93.4594 26.9513 93.7851 28.6368 93.7665 30.3358Z" fill="#282828"/>
<path d="M2.3808 7.5584C2.3808 8.0448 2.44053 8.48853 2.56 8.8896C2.67947 9.28213 2.85013 9.6192 3.072 9.9008C3.3024 10.1739 3.57973 10.3872 3.904 10.5408C4.22827 10.6944 4.5952 10.7712 5.0048 10.7712C5.40587 10.7712 5.76853 10.6944 6.0928 10.5408C6.41707 10.3872 6.69013 10.1739 6.912 9.9008C7.1424 9.6192 7.31733 9.28213 7.4368 8.8896C7.55627 8.48853 7.616 8.0448 7.616 7.5584C7.616 7.072 7.55627 6.63253 7.4368 6.24C7.31733 5.83893 7.1424 5.50187 6.912 5.2288C6.69013 4.9472 6.41707 4.7296 6.0928 4.576C5.76853 4.4224 5.40587 4.3456 5.0048 4.3456C4.5952 4.3456 4.22827 4.4224 3.904 4.576C3.57973 4.7296 3.3024 4.9472 3.072 5.2288C2.85013 5.5104 2.67947 5.84747 2.56 6.24C2.44053 6.63253 2.3808 7.072 2.3808 7.5584ZM9.3056 7.5584C9.3056 8.31787 9.1904 8.98773 8.96 9.568C8.73813 10.1483 8.43093 10.6347 8.0384 11.0272C7.6544 11.4112 7.20213 11.7013 6.6816 11.8976C6.16107 12.0939 5.6064 12.192 5.0176 12.192C4.4288 12.192 3.86987 12.0939 3.3408 11.8976C2.82027 11.7013 2.36373 11.4112 1.9712 11.0272C1.5872 10.6347 1.28 10.1483 1.0496 9.568C0.8192 8.98773 0.704 8.31787 0.704 7.5584C0.704 6.79893 0.8192 6.13333 1.0496 5.5616C1.28 4.98133 1.59147 4.49493 1.984 4.1024C2.38507 3.70987 2.84587 3.41547 3.3664 3.2192C3.88693 3.02293 4.43733 2.9248 5.0176 2.9248C5.59787 2.9248 6.14827 3.02293 6.6688 3.2192C7.18933 3.41547 7.6416 3.70987 8.0256 4.1024C8.41813 4.49493 8.7296 4.98133 8.96 5.5616C9.1904 6.13333 9.3056 6.79893 9.3056 7.5584ZM13.2971 6.5856C13.2886 6.96107 13.2758 7.3536 13.2587 7.7632C13.2416 8.16427 13.199 8.56107 13.1307 8.9536C13.071 9.34613 12.9728 9.7216 12.8363 10.08C12.6998 10.4384 12.5078 10.7627 12.2603 11.0528C12.0214 11.3344 11.7184 11.5733 11.3515 11.7696C10.9931 11.9573 10.5536 12.0768 10.0331 12.128L9.8155 10.8352C10.2507 10.7499 10.5878 10.6133 10.8267 10.4256C11.0656 10.2293 11.2491 9.98187 11.3771 9.6832C11.4795 9.46133 11.5563 9.2096 11.6075 8.928C11.6672 8.6464 11.7099 8.352 11.7355 8.0448C11.7696 7.72907 11.791 7.40907 11.7995 7.0848C11.808 6.76053 11.8123 6.4448 11.8123 6.1376V5.3056H16.5483V12H14.9995V6.5856H13.2971ZM24.3855 5.3056V12H22.8495C22.8495 11.5136 22.8495 11.0315 22.8495 10.5536C22.858 10.0757 22.8623 9.632 22.8623 9.2224C22.8708 8.8128 22.8751 8.45867 22.8751 8.16C22.8836 7.8528 22.8879 7.62667 22.8879 7.4816C22.6319 7.8144 22.3674 8.18133 22.0943 8.5824C21.8212 8.98347 21.5482 9.38453 21.2751 9.7856C21.0106 10.1867 20.7588 10.5792 20.5199 10.9632C20.281 11.3472 20.0719 11.6928 19.8927 12H18.5231V5.3056H20.0463C20.0463 5.80053 20.042 6.27413 20.0335 6.7264C20.0335 7.17013 20.0335 7.57547 20.0335 7.9424C20.0335 8.30933 20.0292 8.62933 20.0207 8.9024C20.0207 9.17547 20.0207 9.38453 20.0207 9.5296C20.2596 9.16267 20.5071 8.7872 20.7631 8.4032C21.0191 8.01067 21.2751 7.63093 21.5311 7.264C21.7956 6.88853 22.0559 6.5344 22.3119 6.2016C22.5679 5.8688 22.8154 5.57013 23.0543 5.3056H24.3855ZM27.9222 7.6096C27.8966 7.968 27.871 8.34347 27.8454 8.736C27.8198 9.12 27.7985 9.504 27.7814 9.888C27.7643 10.272 27.7473 10.6432 27.7302 11.0016C27.7131 11.36 27.7003 11.6928 27.6918 12H26.1942C26.2113 11.5051 26.2369 10.9717 26.271 10.4C26.3051 9.81973 26.3435 9.2352 26.3862 8.6464C26.4374 8.04907 26.4886 7.46453 26.5398 6.8928C26.591 6.32107 26.6465 5.792 26.7062 5.3056H28.0502C28.3745 5.82613 28.703 6.44053 29.0358 7.1488C29.3686 7.84853 29.7398 8.6464 30.1494 9.5424C30.5761 8.62933 30.9643 7.80587 31.3142 7.072C31.6641 6.3296 31.9755 5.7408 32.2486 5.3056H33.6054C33.6651 5.792 33.7206 6.32107 33.7718 6.8928C33.8315 7.46453 33.8827 8.04907 33.9254 8.6464C33.9681 9.2352 34.0065 9.81973 34.0406 10.4C34.0747 10.9717 34.1003 11.5051 34.1174 12H32.5814C32.5643 11.3003 32.5345 10.5792 32.4918 9.8368C32.4577 9.08587 32.415 8.34347 32.3638 7.6096C32.2358 7.8656 32.095 8.15147 31.9414 8.4672C31.7963 8.78293 31.6513 9.10293 31.5062 9.4272C31.3611 9.75147 31.2203 10.0672 31.0838 10.3744C30.9473 10.6731 30.8278 10.9376 30.7254 11.168H29.5734C29.471 10.9376 29.3473 10.6688 29.2022 10.3616C29.0657 10.0544 28.9249 9.73867 28.7798 9.4144C28.6347 9.09013 28.4854 8.7744 28.3318 8.4672C28.1867 8.15147 28.0502 7.8656 27.9222 7.6096ZM41.4911 5.3056V12H39.9423V6.5984H37.4719V12H35.9231V5.3056H41.4911Z" fill="#282828"/>
</svg>
